<?xml version="1.0" standalone="no"?>
<!DOCTYPE svg PUBLIC "-//W3C//DTD SVG 20010904//EN"
 "http://www.w3.org/TR/2001/REC-SVG-20010904/DTD/svg10.dtd">
<svg version="1.0" xmlns="http://www.w3.org/2000/svg"
 width="323.000000pt" height="299.000000pt" viewBox="0 0 323.000000 299.000000"
 preserveAspectRatio="xMidYMid meet">

<g transform="translate(0.000000,299.000000) scale(0.100000,-0.100000)"
fill="#000000" stroke="none">
<path d="M1350 2920 c-139 -25 -264 -67 -396 -133 -244 -123 -446 -310 -578
-535 -26 -45 -51 -82 -56 -82 -4 0 -27 21 -51 47 l-43 47 -43 -50 c-66 -74
-95 -142 -95 -217 -1 -72 15 -108 74 -180 48 -57 76 -127 84 -206 8 -70 -7
-120 -47 -166 -29 -33 -29 -33 -19 -106 40 -279 147 -518 332 -736 69 -82 191
-191 281 -252 40 -27 47 -37 47 -66 0 -32 3 -35 109 -89 126 -65 244 -106 391
-137 84 -18 139 -22 270 -23 258 0 439 42 663 156 114 58 117 60 117 93 0 30
7 38 67 81 38 26 113 93 168 148 229 230 379 542 411 857 6 61 5 67 -19 91
-73 73 -49 248 48 358 106 119 96 243 -29 386 l-43 48 -47 -49 -47 -50 -39 67
c-100 173 -229 321 -379 434 -104 78 -287 174 -413 215 -212 69 -495 88 -718
49z m539 -65 c110 -24 245 -72 343 -121 286 -142 533 -403 634 -669 32 -88 67
-155 98 -193 15 -16 26 -32 26 -35 0 -19 -65 -96 -89 -107 -76 -31 -135 31
-212 224 -265 666 -1085 928 -1705 545 -107 -66 -269 -223 -339 -328 -27 -41
-68 -120 -93 -175 -24 -56 -53 -122 -64 -148 -24 -54 -82 -114 -118 -123 -34
-8 -83 24 -115 76 l-27 41 25 27 c31 32 68 105 100 192 30 85 83 178 155 276
209 280 542 476 907 533 90 13 386 4 474 -15z m-211 -242 c-10 -2 -26 -2 -35
0 -10 3 -2 5 17 5 19 0 27 -2 18 -5z m-165 -10 c-7 -2 -21 -2 -30 0 -10 3 -4
5 12 5 17 0 24 -2 18 -5z m255 0 c-10 -2 -28 -2 -40 0 -13 2 -5 4 17 4 22 1
32 -1 23 -4z m-335 -10 c-7 -2 -19 -2 -25 0 -7 3 -2 5 12 5 14 0 19 -2 13 -5z
m427 -3 c20 -6 21 -8 5 -8 -11 0 -33 4 -50 8 -27 7 -27 8 -5 8 14 0 36 -4 50
-8z m-483 -6 c-3 -3 -12 -4 -19 -1 -8 3 -5 6 6 6 11 1 17 -2 13 -5z m-40 -10
c-3 -3 -12 -4 -19 -1 -8 3 -5 6 6 6 11 1 17 -2 13 -5z m493 -19 c372 -78 673
-344 790 -699 18 -54 23 -94 24 -190 2 -107 5 -129 30 -189 31 -75 30 -93 -5
-225 -23 -86 -65 -182 -120 -274 l-41 -67 -40 27 c-33 22 -56 27 -115 30 -86
5 -132 -10 -211 -70 -119 -89 -197 -91 -307 -7 -77 58 -130 79 -205 79 -71 0
-140 -26 -196 -73 -45 -38 -112 -67 -157 -67 -49 0 -99 21 -162 70 -70 54
-113 70 -188 70 -53 0 -76 -6 -132 -34 l-67 -34 -45 70 c-62 95 -101 186 -129
295 -31 122 -31 145 2 228 23 60 27 86 29 190 2 103 6 131 30 195 92 253 278
461 520 582 118 59 225 90 390 112 52 7 235 -4 305 -19z m87 19 c-3 -3 -12 -4
-19 -1 -8 3 -5 6 6 6 11 1 17 -2 13 -5z m110 -35 c155 -61 318 -176 412 -291
32 -38 20 -29 -45 35 -122 121 -243 199 -409 263 -33 13 -54 23 -48 24 7 0 47
-14 90 -31z m-818 -3 c-10 -9 -169 -86 -169 -81 0 6 151 84 164 85 5 0 7 -2 5
-4z m-180 -90 c-2 -2 -31 -24 -64 -48 -67 -50 -152 -130 -209 -198 -28 -33
-32 -36 -15 -10 34 51 147 161 219 214 34 25 65 46 68 46 3 0 3 -2 1 -4z
m-744 -376 c-24 -67 -65 -146 -85 -165 -19 -17 -20 -17 -35 18 -27 65 -19 119
31 205 l25 42 39 -31 c38 -31 38 -31 25 -69z m2765 -2 c24 -52 25 -109 4 -149
-15 -30 -16 -30 -35 -13 -20 18 -74 125 -85 169 -5 22 -1 31 27 54 l33 28 18
-23 c10 -12 27 -42 38 -66z m-2346 57 c-9 -14 -18 -25 -21 -25 -5 0 5 18 20
38 17 22 18 13 1 -13z m-34 -55 c-6 -11 -13 -20 -16 -20 -2 0 0 9 6 20 6 11
13 20 16 20 2 0 0 -9 -6 -20z m-109 -247 c-12 -20 -14 -14 -5 12 4 9 9 14 11
11 3 -2 0 -13 -6 -23z m-38 -155 c1 -34 -5 -86 -12 -115 l-13 -51 -36 15 c-35
15 -85 11 -142 -11 -13 -5 -15 7 -15 78 l0 84 31 -5 c45 -7 95 12 134 52 21
21 38 31 43 26 5 -5 10 -38 10 -73z m2313 -4 c19 -3 44 -4 57 -2 21 4 22 2 22
-77 l0 -81 -50 13 c-50 13 -99 9 -122 -9 -9 -7 -16 -2 -23 18 -15 40 -24 144
-16 188 l7 37 46 -40 c25 -22 61 -43 79 -47z m-2397 -204 c13 -6 20 -26 25
-67 18 -156 86 -336 181 -480 56 -84 193 -232 280 -302 36 -29 38 -32 13 -26
-23 6 -30 2 -47 -26 -11 -18 -25 -63 -31 -101 -8 -47 -15 -66 -23 -61 -41 23
-143 109 -208 173 -186 184 -320 433 -373 692 -24 117 -23 123 29 154 36 20
99 46 133 53 2 1 11 -3 21 -9z m2479 -27 l62 -25 -5 -37 c-31 -193 -64 -299
-141 -458 -59 -123 -168 -275 -261 -364 -75 -73 -184 -160 -193 -154 -4 3 -10
28 -14 56 -8 59 -31 119 -49 131 -7 4 -21 5 -32 2 -12 -3 -1 10 25 32 93 77
217 212 274 297 95 144 165 325 182 477 10 89 28 94 152 43z m-1938 -534 c21
-6 51 -22 66 -35 l29 -24 -35 17 c-55 27 -158 29 -214 4 -51 -22 -54 -11 -3
16 66 34 101 39 157 22z m700 1 c20 -5 45 -17 55 -25 19 -14 18 -14 -10 -4
-44 16 -144 14 -189 -5 -21 -9 -41 -16 -44 -16 -14 0 44 34 77 46 44 16 66 17
111 4z m749 -21 c20 -11 27 -17 16 -13 -11 4 -54 9 -95 11 -68 4 -81 2 -132
-25 -32 -16 -58 -28 -58 -26 0 9 91 64 121 73 44 13 102 6 148 -20z m-1403
-92 c17 -8 37 -23 45 -33 10 -13 3 -11 -31 7 -38 20 -58 24 -128 23 -57 -1
-80 2 -73 9 28 28 129 25 187 -6z m665 22 c19 -6 61 -32 94 -57 83 -63 144
-85 220 -79 34 2 76 12 95 21 l35 17 -23 -20 c-69 -60 -165 -63 -247 -8 -26
18 -66 44 -88 59 -62 42 -137 55 -206 36 -31 -8 -65 -18 -76 -22 -16 -6 -15
-4 5 13 29 24 94 49 131 50 14 1 41 -4 60 -10z m712 -6 c19 -11 -7 -21 -43
-16 -35 5 -90 -4 -146 -23 -13 -5 -11 -1 6 12 47 35 145 49 183 27z m-973 -2
c0 -19 -104 -61 -149 -61 -43 0 -161 44 -149 55 3 3 20 -3 39 -12 50 -26 162
-24 214 3 22 12 41 22 43 23 1 0 2 -3 2 -8z m677 -23 c-61 -39 -129 -48 -192
-24 -60 23 -68 39 -9 19 57 -19 136 -13 190 16 59 31 65 25 11 -11z m-846
-106 c37 -3 75 1 106 12 l48 16 -23 -20 c-69 -57 -179 -47 -267 24 l-30 25 54
-27 c32 -16 77 -28 112 -30z m-253 28 c23 -10 42 -22 42 -25 0 -3 -6 -3 -12 2
-7 4 -42 15 -78 24 -54 14 -59 17 -30 18 19 0 54 -8 78 -19z m708 -4 c65 -30
81 -52 18 -24 -57 25 -154 27 -208 4 -50 -21 -34 1 18 25 55 25 111 24 172 -5z
m600 9 c-11 -8 -27 -15 -36 -15 -9 0 -38 -11 -63 -24 -31 -15 -43 -18 -35 -8
17 20 107 62 133 62 20 -1 20 -1 1 -15z m-156 -69 c0 -2 -8 -10 -17 -17 -16
-13 -17 -12 -4 4 13 16 21 21 21 13z m-424 -41 c57 -33 65 -48 11 -21 -63 32
-174 29 -247 -6 l-55 -27 35 30 c73 62 175 71 256 24z m-456 -19 c36 0 76 6
88 13 13 7 26 10 29 7 11 -11 -83 -46 -125 -46 -43 0 -122 31 -143 56 -7 9 7
6 37 -8 35 -16 68 -22 114 -22z m676 -1 c36 -5 65 -2 109 13 45 15 55 17 40 5
-75 -57 -181 -55 -251 4 l-29 24 41 -20 c23 -11 63 -23 90 -26z m-845 -68
c-10 -9 -11 -8 -5 6 3 10 9 15 12 12 3 -3 0 -11 -7 -18z m617 -3 c45 -22 55
-24 70 -13 15 12 15 11 -1 -7 l-18 -21 -42 21 c-85 42 -209 22 -299 -49 -24
-19 -49 -35 -56 -35 -17 0 112 88 163 111 58 27 121 24 183 -7z m257 -18 c48
0 80 5 104 18 18 10 30 13 26 7 -3 -6 -25 -21 -47 -32 -56 -29 -147 -24 -203
11 -22 14 -44 24 -48 22 -5 -1 -6 2 -3 7 4 6 26 1 54 -12 34 -15 67 -21 117
-21z m-715 -1 c51 0 85 5 108 17 18 9 30 12 26 7 -13 -22 -86 -49 -131 -49
-48 0 -124 28 -138 50 -4 6 8 4 26 -6 24 -13 56 -18 109 -19z m-238 -25 c335
-176 712 -197 1049 -57 47 19 112 51 144 71 33 20 63 32 66 28 9 -9 29 -139
29 -185 0 -33 -2 -35 -107 -85 -208 -98 -372 -135 -593 -135 -232 0 -426 46
-630 148 l-92 46 6 37 c14 100 28 182 30 182 2 0 46 -22 98 -50z m677 -40 c48
-22 52 -37 5 -19 -41 15 -146 12 -191 -5 -37 -15 -37 -15 -14 2 62 44 133 52
200 22z m162 -18 c-5 -2 -20 2 -31 8 -18 10 -26 8 -44 -9 -33 -31 -39 -25 -8
7 26 27 28 27 60 13 19 -9 29 -17 23 -19z"/>
<path d="M1855 2840 c-3 -5 3 -10 14 -10 12 0 21 5 21 10 0 6 -6 10 -14 10 -8
0 -18 -4 -21 -10z"/>
<path d="M1576 2784 c-18 -56 -15 -77 6 -56 15 15 58 16 58 2 0 -5 7 -10 15
-10 19 0 19 -2 -6 64 -29 75 -49 75 -73 0z m35 -17 c-8 -8 -11 -7 -11 4 0 20
13 34 18 19 3 -7 -1 -17 -7 -23z"/>
<path d="M1700 2820 c-22 -22 -27 -79 -8 -98 7 -7 24 -12 38 -12 46 0 71 52
30 63 -23 6 -39 -12 -20 -23 9 -5 9 -9 1 -14 -18 -12 -31 3 -31 35 0 30 30 54
38 31 5 -17 32 -15 32 3 0 14 -29 35 -49 35 -6 0 -20 -9 -31 -20z"/>
<path d="M1395 2825 c-5 -2 -22 -6 -36 -9 -26 -6 -26 -7 -18 -53 5 -27 11 -53
13 -59 6 -16 68 -3 74 15 3 10 -2 12 -21 9 -16 -3 -28 0 -31 8 -4 10 3 14 19
14 16 0 25 6 25 16 0 12 -6 15 -25 10 -33 -8 -33 12 1 24 14 6 22 14 19 20 -3
5 -7 10 -8 9 -1 0 -6 -2 -12 -4z"/>
<path d="M1444 2793 c3 -21 6 -48 6 -60 0 -19 5 -23 33 -23 42 0 57 15 57 60
0 46 -15 60 -63 60 l-40 0 7 -37z m64 -19 c2 -21 -2 -33 -12 -37 -11 -4 -16
-1 -16 11 0 9 -3 28 -7 41 -5 19 -2 22 13 19 13 -2 20 -13 22 -34z"/>
<path d="M1810 2801 c-14 -26 -13 -74 2 -89 19 -19 66 -15 78 7 16 31 13 88
-6 95 -31 12 -63 6 -74 -13z m58 -38 c-2 -27 -8 -39 -20 -41 -14 -3 -18 4 -18
31 0 37 6 47 27 47 10 0 13 -11 11 -37z"/>
<path d="M1238 2793 c-22 -5 -22 -2 -2 -70 9 -32 21 -52 27 -50 7 2 11 12 9
23 -1 12 6 23 20 29 27 12 35 40 18 60 -12 15 -37 17 -72 8z m50 -35 c-6 -18
-25 -20 -31 -3 -5 10 0 15 14 15 12 0 19 -5 17 -12z"/>
<path d="M1938 2783 c-27 -30 -33 -71 -13 -93 20 -22 55 -26 73 -8 19 19 14
45 -9 51 -17 5 -20 2 -16 -14 6 -22 -4 -31 -22 -20 -15 10 -4 60 15 68 7 3 21
-3 31 -13 17 -17 18 -17 21 0 7 37 -54 59 -80 29z"/>
<path d="M1109 2747 l-27 -12 20 -52 c21 -55 29 -60 72 -43 37 14 33 33 -4 25
-35 -8 -41 8 -10 25 27 14 17 29 -15 22 -33 -6 -33 14 0 22 14 4 23 11 20 16
-8 13 -24 12 -56 -3z"/>
<path d="M2044 2725 c-19 -46 -22 -77 -8 -82 11 -4 44 75 44 104 0 25 -21 13
-36 -22z"/>
<path d="M2112 2724 c-31 -21 -43 -67 -26 -93 17 -24 69 -29 77 -7 7 17 -19
30 -29 15 -4 -6 -11 -6 -20 2 -11 9 -11 15 2 40 17 34 29 37 44 9 13 -25 30
-26 30 -1 0 35 -48 57 -78 35z"/>
<path d="M998 2694 l-28 -14 27 -55 27 -54 28 15 c16 8 32 22 35 30 12 32 -21
95 -50 94 -7 -1 -24 -7 -39 -16z m52 -33 c14 -28 13 -51 -4 -51 -11 0 -36 46
-36 66 0 13 31 1 40 -15z"/>
<path d="M2204 2638 c-32 -29 -41 -44 -32 -49 7 -4 18 -4 24 2 17 14 44 0 44
-22 0 -10 6 -19 14 -19 10 0 17 17 21 54 11 89 -4 96 -71 34z m42 -25 c-10
-10 -19 5 -10 18 6 11 8 11 12 0 2 -7 1 -15 -2 -18z"/>
<path d="M901 2640 c-20 -12 -1 -130 20 -130 5 0 9 9 9 20 0 22 32 44 46 30 5
-5 15 -6 22 -1 10 6 0 19 -35 49 -33 27 -54 38 -62 32z m47 -56 c2 -1 -4 -4
-12 -7 -8 -3 -16 2 -19 14 -5 17 -3 18 11 7 9 -7 18 -13 20 -14z"/>
<path d="M2363 2597 c-5 -6 -22 -28 -37 -48 l-27 -37 34 -21 c19 -12 37 -21
40 -21 15 0 57 57 57 76 0 33 -51 72 -67 51z m37 -45 c0 -23 -35 -56 -50 -47
-7 4 -5 16 7 36 19 33 43 39 43 11z"/>
<path d="M783 2561 l-22 -19 35 -46 c19 -25 38 -46 43 -46 13 0 51 46 51 62 0
25 -40 68 -63 68 -12 -1 -32 -9 -44 -19z m67 -32 c7 -11 9 -28 5 -37 -5 -13
-10 -11 -30 13 -30 37 -31 45 -5 45 10 0 24 -9 30 -21z"/>
<path d="M2428 2496 l-38 -43 30 -28 c22 -21 33 -26 41 -18 8 8 4 15 -11 26
-13 9 -19 20 -15 27 5 8 13 6 26 -6 14 -12 23 -14 30 -7 8 8 4 15 -11 26 -14
10 -18 17 -10 22 6 4 20 -1 30 -10 12 -11 20 -13 25 -6 5 10 -42 61 -55 60 -3
-1 -22 -20 -42 -43z"/>
<path d="M725 2510 c-10 -16 65 -104 78 -91 7 7 -2 24 -27 56 -41 49 -42 50
-51 35z"/>
<path d="M656 2451 c-12 -13 -15 -27 -11 -41 6 -20 12 -21 51 -15 27 4 44 2
44 -4 0 -5 -10 -11 -22 -13 -32 -4 -35 -28 -4 -28 30 0 60 38 50 65 -6 14 -15
16 -51 11 -25 -3 -43 -2 -43 4 0 6 9 10 20 10 11 0 20 7 20 15 0 21 -34 19
-54 -4z"/>
<path d="M2536 2401 c-22 -23 -35 -44 -31 -51 5 -8 14 -5 29 9 l23 21 -1 -22
c-1 -18 4 -22 19 -20 19 4 19 2 -3 -21 -38 -40 -6 -45 36 -6 20 19 39 35 41
36 2 1 1 9 -2 17 -5 12 -13 13 -37 6 -29 -8 -31 -7 -24 13 20 63 1 70 -50 18z"/>
<path d="M577 2362 l-27 -28 46 -38 c34 -28 49 -35 57 -27 8 8 6 15 -9 26 -20
15 -15 18 29 15 31 -2 37 19 7 27 -11 3 -20 9 -20 13 0 13 -30 40 -44 40 -7 0
-24 -13 -39 -28z m48 -12 c11 -17 -5 -32 -21 -19 -7 6 -11 15 -8 20 7 12 21
11 29 -1z"/>
<path d="M524 2298 c-4 -7 -14 -23 -21 -35 -13 -20 -11 -23 33 -54 l47 -32 24
27 c12 15 23 31 23 37 0 16 -18 10 -34 -13 -14 -19 -16 -20 -22 -5 -3 10 -1
24 5 31 8 9 8 16 2 20 -5 4 -16 -3 -24 -15 -10 -13 -17 -17 -22 -9 -4 6 -1 18
6 26 8 10 9 18 2 25 -8 8 -13 7 -19 -3z"/>
<path d="M2627 2283 c-28 -8 -46 -19 -44 -26 3 -7 10 -11 17 -9 21 5 40 -19
34 -43 -10 -41 10 -34 45 16 32 47 36 80 9 78 -7 -1 -35 -8 -61 -16z m43 -28
c-7 -8 -17 -12 -22 -9 -6 4 -5 10 3 15 22 14 33 10 19 -6z"/>
<path d="M465 2210 c-4 -7 6 -26 25 -46 l33 -33 -37 10 c-40 11 -76 5 -60 -10
5 -5 33 -14 63 -20 43 -9 56 -9 63 1 12 20 11 21 -36 67 -29 29 -46 39 -51 31z"/>
<path d="M2693 2184 c-48 -28 -57 -50 -18 -40 17 4 27 2 31 -8 14 -35 74 -23
74 15 0 27 -18 59 -33 59 -7 0 -31 -12 -54 -26z m57 -34 c-9 -6 -19 -5 -25 1
-6 6 -5 13 5 19 9 6 19 5 25 -1 6 -6 5 -13 -5 -19z"/>
<path d="M2763 2100 c-22 -10 -44 -23 -48 -30 -11 -17 3 -58 23 -69 24 -13
116 28 104 46 -6 9 -18 7 -49 -7 -23 -10 -44 -16 -47 -12 -15 14 -3 30 34 47
22 10 40 22 40 26 0 17 -18 17 -57 -1z"/>
<path d="M404 2099 c-8 -14 -4 -17 55 -45 32 -14 53 -19 57 -13 8 14 -2 23
-58 47 -30 13 -50 17 -54 11z"/>
<path d="M386 2042 c-11 -11 -6 -19 22 -32 l27 -14 -34 -5 c-64 -11 -45 -37
47 -65 16 -6 22 -3 22 8 0 9 -12 19 -27 23 -28 7 -28 7 11 18 22 6 41 16 43
21 3 10 -103 55 -111 46z"/>
<path d="M2847 2004 c-4 -4 -7 -15 -7 -24 0 -11 -14 -21 -40 -29 -23 -7 -40
-18 -40 -26 0 -18 -2 -18 50 0 23 8 44 15 46 15 2 0 4 -7 4 -15 0 -8 7 -15 16
-15 11 0 14 6 8 23 -15 50 -30 78 -37 71z"/>
<path d="M340 1917 c0 -9 17 -21 41 -29 56 -18 49 -34 -12 -30 -38 2 -50 -1
-47 -10 9 -27 112 -38 122 -12 13 34 6 64 -16 73 -54 20 -88 23 -88 8z"/>
<path d="M2822 1883 c-35 -7 -49 -46 -27 -79 14 -23 22 -25 52 -21 19 3 41 11
49 18 19 15 18 54 -2 73 -15 16 -28 17 -72 9z m62 -38 c6 -16 -28 -35 -60 -35
-24 0 -16 38 9 43 40 8 45 7 51 -8z"/>
<path d="M1599 2323 c0 -109 -4 -216 -8 -238 l-9 -40 -1 48 c-1 36 -5 47 -17
47 -15 0 -16 -12 -11 -102 6 -125 5 -118 -43 206 -21 142 -40 260 -42 262 -2
1 -9 -1 -16 -5 -10 -6 -6 -50 18 -206 17 -109 29 -203 26 -209 -2 -6 -5 -1 -5
11 -1 12 -5 25 -11 28 -24 15 -26 -10 -9 -86 11 -45 18 -83 16 -85 -2 -2 -36
108 -76 244 -40 136 -76 252 -80 259 -3 7 -12 9 -18 5 -8 -5 7 -69 53 -226 36
-120 63 -220 60 -223 -2 -2 -11 18 -21 46 -11 36 -20 48 -31 44 -19 -7 -19 -5
21 -107 19 -49 34 -91 32 -92 -2 -2 -58 111 -126 251 -68 140 -128 255 -132
255 -24 0 -11 -36 75 -215 52 -107 91 -193 87 -190 -5 2 -14 18 -21 35 -7 16
-16 30 -21 30 -22 0 -17 -27 17 -88 54 -98 31 -70 -116 148 -72 107 -134 197
-136 199 -2 3 -9 0 -15 -6 -8 -8 31 -73 140 -235 83 -122 132 -201 109 -173
-24 27 -53 61 -65 75 -15 17 -25 22 -32 15 -8 -8 12 -39 66 -105 64 -80 44
-63 -129 115 -144 147 -209 207 -217 200 -7 -7 47 -70 181 -210 106 -110 181
-191 168 -179 -14 11 -49 41 -79 68 -38 32 -57 44 -65 36 -7 -7 1 -21 25 -46
18 -20 -42 23 -134 96 -131 103 -171 130 -180 121 -9 -10 -8 -15 3 -24 103
-79 420 -330 420 -333 0 -2 -42 24 -92 56 -51 33 -97 59 -102 57 -21 -7 -14
-23 16 -40 18 -10 44 -27 58 -38 l25 -20 -25 12 c-14 6 -102 54 -196 105 -94
52 -176 94 -182 94 -41 0 11 -38 178 -129 105 -57 189 -105 186 -108 -2 -2
-23 5 -46 17 -40 20 -70 21 -70 2 0 -5 21 -17 46 -27 25 -9 43 -19 41 -21 -2
-2 -91 27 -198 65 -155 56 -195 66 -197 54 -2 -8 -2 -16 0 -17 1 -1 80 -30
173 -64 94 -35 158 -60 144 -57 -18 3 -29 0 -33 -10 -3 -8 -1 -15 5 -15 6 0 7
-4 4 -10 -3 -5 -21 -10 -38 -10 -34 0 -202 -27 -227 -36 -12 -5 -11 -8 5 -14
17 -7 17 -9 3 -9 -26 -1 -22 -19 5 -24 19 -4 18 -4 -5 -6 -17 0 -28 -7 -28
-15 0 -8 -7 -22 -17 -31 -14 -14 -14 -18 -2 -26 10 -6 7 -9 -13 -9 -29 0 -38
-14 -15 -23 6 -3 2 -6 -10 -6 -13 -1 -23 -6 -23 -12 0 -8 15 -10 48 -6 26 4
153 9 282 13 230 6 439 -4 505 -25 21 -7 7 -8 -50 -4 -76 7 -417 9 -687 5 -78
-1 -128 -6 -128 -12 0 -6 139 -10 398 -10 218 0 422 -4 452 -8 32 -4 -136 -9
-400 -12 l-455 -5 0 -25 0 -25 434 -3 433 -2 29 -25 c69 -57 179 -57 248 0
l29 25 435 0 c374 0 436 2 447 15 10 12 10 18 0 30 -11 13 -76 15 -469 16
-309 1 -443 4 -416 11 22 5 223 9 448 9 224 1 407 5 407 9 0 5 -46 10 -102 12
-143 6 -694 1 -743 -6 -37 -6 -37 -5 -10 4 64 21 273 32 505 26 129 -4 256 -9
283 -13 32 -4 47 -2 47 6 0 6 -10 11 -21 11 -18 0 -19 2 -9 15 11 13 8 15 -16
15 -21 0 -25 3 -15 9 12 8 12 12 -2 26 -10 9 -17 23 -17 31 0 8 -11 14 -27 15
l-28 0 25 11 c24 10 24 10 5 18 -19 8 -19 9 0 9 75 3 -130 49 -230 52 -16 0
-24 3 -17 6 15 6 16 30 1 35 -6 2 64 28 154 57 122 40 164 57 160 67 -3 8 -8
14 -12 14 -3 0 -107 -34 -231 -75 -123 -41 -225 -73 -227 -71 -2 1 28 15 67
31 38 15 70 34 70 42 0 20 -21 16 -106 -23 -127 -58 -79 -28 159 97 128 68
223 124 225 133 2 9 0 16 -4 16 -7 0 -182 -91 -371 -192 -51 -27 -93 -48 -93
-45 0 3 32 24 70 47 78 47 88 57 67 66 -8 3 -47 -15 -86 -40 -39 -25 -71 -44
-71 -42 0 2 95 75 210 160 119 88 208 161 204 167 -3 6 -12 8 -20 5 -7 -3
-102 -71 -211 -152 -109 -80 -205 -151 -213 -157 -8 -6 19 21 60 60 53 50 72
74 65 82 -8 8 -32 -9 -85 -57 l-75 -67 62 70 c34 39 120 128 192 199 105 105
128 133 119 144 -10 11 -50 -25 -216 -195 -149 -152 -186 -186 -137 -125 48
59 65 87 60 100 -6 14 -13 10 -43 -27 -21 -25 -48 -56 -61 -70 -23 -26 -23
-26 1 9 261 373 280 402 269 413 -6 6 -12 9 -14 6 -2 -2 -64 -89 -137 -194
-73 -104 -137 -194 -143 -200 -12 -12 9 28 39 77 20 32 21 37 7 42 -9 4 -17 5
-18 4 -1 -2 -16 -29 -34 -60 -66 -117 -38 -52 71 167 85 170 110 227 101 236
-9 9 -42 -49 -138 -237 -69 -137 -124 -242 -122 -234 3 8 17 46 32 84 23 56
25 70 14 77 -11 6 -21 -9 -43 -67 -16 -41 -30 -73 -32 -71 -1 1 33 115 76 252
54 169 76 253 69 260 -7 7 -12 6 -17 -2 -4 -7 -41 -118 -82 -249 -71 -226 -97
-287 -66 -156 13 58 9 81 -12 68 -5 -3 -15 -38 -22 -77 -28 -146 -20 -46 15
185 40 271 40 266 21 266 -14 0 -21 -36 -63 -330 -13 -92 -19 -114 -21 -82 -4
51 -29 58 -35 10 -2 -18 -5 69 -5 195 -2 194 -4 227 -17 227 -13 0 -15 -29
-16 -197z m-92 -285 c-3 -8 -6 -5 -6 6 -1 11 2 17 5 13 3 -3 4 -12 1 -19z
m160 -45 c-3 -10 -5 -2 -5 17 0 19 2 27 5 18 2 -10 2 -26 0 -35z m-466 -160
c13 -16 12 -17 -3 -4 -10 7 -18 15 -18 17 0 8 8 3 21 -13z m515 -24 c58 -18
77 -30 133 -87 l66 -65 -81 -18 c-102 -22 -153 -48 -195 -98 l-33 -39 -38 43
c-42 47 -103 77 -195 95 -35 7 -63 17 -63 21 0 15 73 91 111 115 87 55 188 66
295 33z m-516 -75 c0 -2 -9 0 -20 6 -11 6 -20 13 -20 16 0 2 9 0 20 -6 11 -6
20 -13 20 -16z m228 -128 c30 -10 52 -19 50 -21 -2 -2 -26 3 -53 12 -34 11
-111 18 -240 23 l-190 8 190 -3 c147 -2 202 -6 243 -19z m597 14 c-130 -5
-206 -12 -240 -23 -27 -9 -51 -14 -53 -12 -4 4 86 31 128 38 14 2 99 4 190 4
l165 -1 -190 -6z m-1062 -7 c-13 -2 -33 -2 -45 0 -13 2 -3 4 22 4 25 0 35 -2
23 -4z m1330 0 c-13 -2 -33 -2 -45 0 -13 2 -3 4 22 4 25 0 35 -2 23 -4z
m-1415 -10 c-10 -2 -26 -2 -35 0 -10 3 -2 5 17 5 19 0 27 -2 18 -5z m1490 0
c-10 -2 -26 -2 -35 0 -10 3 -2 5 17 5 19 0 27 -2 18 -5z m-1565 -10 c-7 -2
-19 -2 -25 0 -7 3 -2 5 12 5 14 0 19 -2 13 -5z m630 -22 c40 -13 81 -35 100
-53 l32 -30 -33 26 c-89 70 -337 94 -621 62 -79 -10 -145 -15 -148 -13 -2 3
42 10 99 16 57 7 110 14 118 16 8 2 98 2 200 1 159 -3 195 -6 253 -25z m930 9
c138 -20 94 -23 -64 -4 -286 33 -534 7 -621 -63 -28 -23 -30 -24 -13 -4 28 33
81 57 161 75 82 18 395 16 537 -4z m70 13 c-7 -2 -19 -2 -25 0 -7 3 -2 5 12 5
14 0 19 -2 13 -5z m-1028 -46 c65 -18 105 -39 130 -68 l20 -24 -20 17 c-62 52
-165 77 -370 88 l-140 8 165 -3 c103 -2 184 -9 215 -18z m640 13 c-204 -11
-307 -36 -370 -88 l-20 -17 20 24 c27 31 79 56 145 70 87 17 98 18 235 18
l130 0 -140 -7z m-1047 -7 c-15 -2 -42 -2 -60 0 -18 2 -6 4 27 4 33 0 48 -2
33 -4z m1280 0 c-15 -2 -42 -2 -60 0 -18 2 -6 4 27 4 33 0 48 -2 33 -4z
m-1400 -10 c-10 -2 -26 -2 -35 0 -10 3 -2 5 17 5 19 0 27 -2 18 -5z m1500 0
c-10 -2 -28 -2 -40 0 -13 2 -5 4 17 4 22 1 32 -1 23 -4z m-1190 -10 c-27 -2
-69 -2 -95 0 -27 2 -5 3 47 3 52 0 74 -1 48 -3z m930 0 c-27 -2 -69 -2 -95 0
-27 2 -5 3 47 3 52 0 74 -1 48 -3z m329 1 c-3 -3 -12 -4 -19 -1 -8 3 -5 6 6 6
11 1 17 -2 13 -5z m-1469 -11 c-16 -2 -40 -2 -55 0 -16 2 -3 4 27 4 30 0 43
-2 28 -4z m387 -3 c18 -5 -1 -6 -45 -3 -41 3 -77 7 -79 9 -8 7 94 2 124 -6z
m604 6 c-2 -2 -38 -6 -79 -9 -44 -3 -63 -2 -45 3 30 8 132 13 124 6z m319 -3
c-16 -2 -40 -2 -55 0 -16 2 -3 4 27 4 30 0 43 -2 28 -4z m-1445 -10 c-7 -2
-21 -2 -30 0 -10 3 -4 5 12 5 17 0 24 -2 18 -5z m1560 0 c-7 -2 -21 -2 -30 0
-10 3 -4 5 12 5 17 0 24 -2 18 -5z m-1043 -23 c32 -9 31 -9 -14 -5 -27 3 -151
6 -275 7 -180 1 -207 3 -131 9 117 8 372 1 420 -11z m67 14 c-3 -3 -12 -4 -19
-1 -8 3 -5 6 6 6 11 1 17 -2 13 -5z m380 0 c-3 -3 -12 -4 -19 -1 -8 3 -5 6 6
6 11 1 17 -2 13 -5z m428 -2 c126 -7 122 -7 -140 -13 -148 -4 -281 -9 -295
-13 l-25 -7 24 11 c55 24 240 34 436 22z m-1417 -19 c-16 -2 -40 -2 -55 0 -16
2 -3 4 27 4 30 0 43 -2 28 -4z m1630 0 c-16 -2 -40 -2 -55 0 -16 2 -3 4 27 4
30 0 43 -2 28 -4z m-1021 -9 c-3 -3 -12 -4 -19 -1 -8 3 -5 6 6 6 11 1 17 -2
13 -5z m-4 -24 c27 -6 46 -14 44 -16 -2 -3 -26 1 -53 8 -35 9 -148 13 -384 13
-184 0 -299 3 -255 6 133 10 595 3 648 -11z m1002 10 c53 -4 -16 -5 -165 -2
-150 2 -302 0 -369 -7 -63 -6 -116 -9 -119 -7 -20 21 459 33 653 16z m-746
-65 c27 -36 15 -66 -34 -83 -80 -27 -163 30 -118 81 10 11 31 28 47 38 26 16
32 16 57 4 15 -8 36 -26 48 -40z"/>
<path d="M1080 1125 c0 -58 19 -78 21 -22 l1 32 10 -32 c6 -18 16 -33 23 -33
7 0 17 15 23 33 l10 32 1 -32 c2 -56 21 -36 21 22 0 47 -3 55 -19 55 -12 0
-21 -10 -26 -27 l-7 -28 -10 28 c-6 17 -17 27 -29 27 -16 0 -19 -7 -19 -55z"/>
<path d="M1228 1169 c-22 -13 -24 -62 -2 -83 32 -33 87 -9 87 39 0 45 -45 68
-85 44z m52 -44 c0 -25 -23 -35 -35 -15 -10 16 2 40 20 40 9 0 15 -9 15 -25z"/>
<path d="M1348 1169 c-22 -12 -23 -66 -3 -93 12 -16 18 -17 44 -6 16 6 32 18
35 25 6 16 -21 29 -29 15 -13 -20 -35 -10 -35 16 0 23 3 25 30 19 23 -5 30 -3
30 8 0 25 -41 34 -72 16z"/>
<path d="M1452 1128 c-19 -51 -14 -74 11 -49 14 14 47 15 47 1 0 -5 7 -10 15
-10 19 0 19 5 -2 63 -23 64 -46 63 -71 -5z m35 -10 c-3 -8 -6 -5 -6 6 -1 11 2
17 5 13 3 -3 4 -12 1 -19z"/>
<path d="M1550 1125 c0 -42 3 -55 15 -55 10 0 15 10 16 28 l1 27 10 -28 c12
-33 30 -31 39 4 7 24 7 24 8 -3 1 -18 7 -28 16 -28 12 0 15 13 15 56 0 51 -2
55 -22 52 -14 -2 -25 -12 -29 -28 l-6 -25 -11 28 c-7 17 -19 27 -32 27 -18 0
-20 -6 -20 -55z"/>
<path d="M1690 1125 l0 -55 33 0 c45 0 56 11 54 50 -3 49 -13 60 -53 60 l-34
0 0 -55z m57 19 c-3 -3 -12 -4 -19 -1 -8 3 -5 6 6 6 11 1 17 -2 13 -5z m-2
-34 c3 -5 -1 -10 -9 -10 -9 0 -16 5 -16 10 0 6 4 10 9 10 6 0 13 -4 16 -10z"/>
<path d="M1800 1125 c0 -42 3 -55 15 -55 12 0 15 13 15 55 0 42 -3 55 -15 55
-12 0 -15 -13 -15 -55z"/>
<path d="M1867 1162 c-37 -41 -7 -92 54 -92 32 0 34 2 37 39 2 31 -2 43 -20
55 -29 21 -51 20 -71 -2z m53 -33 c0 -11 -4 -17 -10 -14 -5 3 -10 1 -10 -6 0
-10 -3 -10 -11 -2 -15 15 -4 43 16 43 8 0 15 -9 15 -21z"/>
<path d="M1974 1165 c-4 -8 -3 -31 0 -50 5 -27 13 -36 33 -41 40 -10 58 7 61
60 2 36 0 46 -12 46 -12 0 -16 -10 -16 -40 0 -29 -4 -40 -15 -40 -11 0 -15 11
-15 40 0 29 -4 40 -15 40 -9 0 -18 -7 -21 -15z"/>
<path d="M2090 1125 l0 -55 45 0 c33 0 45 4 45 15 0 9 -9 15 -25 15 -14 0 -25
5 -25 10 0 6 9 10 20 10 27 0 25 18 -2 23 -20 4 -19 4 5 6 17 0 27 7 27 16 0
11 -12 15 -45 15 l-45 0 0 -55z"/>
<path d="M350 1211 c-7 -13 -7 -28 0 -46 8 -21 16 -26 38 -23 19 2 28 9 30 25
7 52 -45 86 -68 44z m48 -29 c2 -7 -3 -12 -12 -12 -9 0 -16 7 -16 16 0 17 22
14 28 -4z"/>
<path d="M406 1113 c-6 -15 -8 -15 -16 -3 -7 12 -10 9 -10 -12 0 -14 3 -33 6
-42 8 -22 44 -21 44 2 0 14 2 15 10 2 8 -12 10 -12 16 3 6 18 -19 67 -35 67
-5 0 -12 -8 -15 -17z m1 -45 c-3 -8 -6 -5 -6 6 -1 11 2 17 5 13 3 -3 4 -12 1
-19z"/>
<path d="M423 1014 c-3 -9 -2 -28 3 -43 7 -20 16 -26 39 -26 36 0 44 24 21 60
-19 28 -54 33 -63 9z m47 -29 c0 -8 -7 -15 -15 -15 -16 0 -20 12 -8 23 11 12
23 8 23 -8z"/>
<path d="M488 924 c-16 -8 -28 -19 -28 -24 0 -16 19 -21 40 -10 24 13 26 3 4
-21 -21 -24 -10 -43 17 -28 27 14 39 1 15 -16 -11 -8 -16 -20 -12 -30 5 -14 8
-14 31 1 28 18 33 51 10 60 -8 4 -15 14 -15 23 0 9 -8 26 -18 38 -16 20 -19
21 -44 7z"/>
<path d="M620 805 c0 -8 7 -15 16 -15 14 0 14 3 4 15 -7 8 -14 15 -16 15 -2 0
-4 -7 -4 -15z"/>
<path d="M576 783 c-21 -17 -26 -27 -18 -35 8 -8 18 -6 36 6 27 17 30 24 18
43 -5 8 -16 4 -36 -14z"/>
<path d="M621 746 c-37 -39 -35 -65 4 -40 29 19 44 1 15 -19 -17 -12 -18 -16
-7 -25 10 -9 19 -8 35 4 26 18 28 37 7 54 -11 9 -12 16 -5 25 7 9 6 16 -3 23
-10 9 -21 4 -46 -22z"/>
<path d="M720 650 c14 -11 20 -20 13 -20 -6 0 -15 5 -18 10 -9 14 -45 12 -45
-3 0 -6 14 -25 31 -41 l31 -30 19 25 c10 13 19 27 19 32 0 14 -40 47 -57 47
-15 0 -13 -4 7 -20z m10 -36 c0 -2 -7 -4 -15 -4 -8 0 -15 4 -15 10 0 5 7 7 15
4 8 -4 15 -8 15 -10z"/>
<path d="M2842 1258 c-15 -15 -17 -82 -1 -72 6 3 15 0 20 -7 14 -21 38 15 36
54 -2 24 -7 33 -22 35 -11 1 -26 -3 -33 -10z m15 -50 c-3 -8 -6 -5 -6 6 -1 11
2 17 5 13 3 -3 4 -12 1 -19z"/>
<path d="M2787 1157 c-7 -20 73 -43 85 -24 10 16 -1 24 -43 32 -27 5 -38 3
-42 -8z"/>
<path d="M2790 1080 c-16 -38 -7 -60 24 -60 18 0 27 8 35 31 20 58 -36 85 -59
29z m42 -22 c-8 -8 -9 -4 -5 13 4 13 8 18 11 10 2 -7 -1 -18 -6 -23z m-19 7
c-3 -9 -8 -14 -10 -11 -3 3 -2 9 2 15 9 16 15 13 8 -4z"/>
<path d="M2753 990 c-3 -11 -13 -20 -23 -20 -20 0 -35 -27 -18 -32 7 -3 5 -15
-6 -36 -16 -31 -16 -31 13 -47 35 -18 52 -3 27 24 -9 10 -16 25 -16 34 0 14 4
15 26 5 21 -10 27 -9 34 3 7 10 4 17 -10 23 -28 13 -25 29 4 22 32 -8 45 13
21 31 -27 19 -46 16 -52 -7z"/>
<path d="M2647 856 c-4 -9 9 -24 33 -40 33 -22 39 -23 44 -9 8 19 -22 44 -46
39 -11 -2 -15 1 -11 10 3 8 1 14 -5 14 -5 0 -12 -6 -15 -14z"/>
<path d="M2617 795 c-2 -5 -1 -19 4 -30 4 -11 8 -16 8 -12 1 4 10 3 22 -3 15
-9 24 -8 35 1 20 16 17 29 -6 29 -11 0 -20 6 -20 14 0 17 -37 18 -43 1z"/>
<path d="M2595 740 c-4 -6 -1 -18 6 -26 16 -20 5 -28 -19 -15 -27 14 -37 -11
-13 -33 25 -23 37 -20 61 15 21 29 21 31 5 50 -20 21 -31 24 -40 9z"/>
<path d="M2523 659 c-7 -7 -13 -20 -13 -28 0 -11 -4 -10 -20 4 -18 16 -20 17
-26 1 -9 -24 44 -80 62 -65 7 6 10 17 8 24 -4 8 3 15 17 17 29 4 38 28 11 28
-11 0 -22 7 -24 16 -2 12 -5 13 -15 3z"/>
<path d="M1140 284 c-14 -42 -1 -66 25 -44 12 10 15 10 15 -3 0 -12 19 -27 36
-27 2 0 2 11 -2 25 -4 15 -2 25 5 25 6 0 11 5 11 10 0 6 -11 10 -25 10 -18 0
-25 5 -25 20 0 33 -28 22 -40 -16z"/>
<path d="M1994 270 c-22 -9 -31 -55 -13 -66 14 -8 79 18 79 32 0 41 -22 52
-66 34z m26 -14 c0 -2 -7 -7 -16 -10 -8 -3 -12 -2 -9 4 6 10 25 14 25 6z m5
-26 c-3 -5 -11 -10 -16 -10 -6 0 -7 5 -4 10 3 6 11 10 16 10 6 0 7 -4 4 -10z"/>
<path d="M1246 254 c-8 -22 -7 -54 2 -55 4 -1 17 -3 28 -4 12 -1 26 -5 32 -9
12 -7 17 -1 26 37 5 22 3 27 -13 27 -11 0 -21 -9 -24 -21 -3 -12 -10 -18 -15
-15 -6 3 -8 14 -5 25 6 22 -23 36 -31 15z"/>
<path d="M1835 251 c-3 -6 2 -11 12 -12 10 0 13 -3 6 -6 -18 -7 -16 -52 2 -60
23 -8 26 0 17 42 -8 39 -25 55 -37 36z"/>
<path d="M1925 252 c-30 -6 -38 -18 -31 -46 8 -33 36 -35 36 -3 0 13 5 28 12
35 15 15 9 20 -17 14z"/>
<path d="M1470 240 c0 -5 7 -10 16 -10 8 0 12 5 9 10 -3 6 -10 10 -16 10 -5 0
-9 -4 -9 -10z"/>
<path d="M1357 223 c-18 -65 -18 -73 3 -73 11 0 20 5 20 11 0 6 8 8 19 4 28
-8 54 21 41 46 -6 10 -16 19 -23 19 -7 0 -22 3 -34 6 -15 4 -22 1 -26 -13z
m53 -23 c0 -5 -4 -10 -10 -10 -5 0 -10 5 -10 10 0 6 5 10 10 10 6 0 10 -4 10
-10z"/>
<path d="M1728 195 c3 -36 8 -45 23 -45 11 0 19 7 19 17 0 13 3 14 12 5 7 -7
20 -12 31 -12 17 0 17 2 3 22 -11 16 -13 25 -4 35 14 18 -3 16 -30 -3 -21 -14
-22 -14 -22 5 0 13 -7 21 -18 21 -14 0 -17 -7 -14 -45z"/>
<path d="M1460 191 c0 -35 26 -49 34 -18 10 37 7 47 -14 47 -15 0 -20 -7 -20
-29z"/>
<path d="M1533 213 c-22 -8 -14 -29 15 -40 26 -11 26 -11 -7 -5 -24 4 -32 2
-27 -6 9 -15 73 -16 81 -2 4 6 1 17 -5 25 -7 8 -9 15 -4 15 5 0 2 5 -6 10 -16
10 -28 11 -47 3z"/>
<path d="M1620 201 c0 -6 6 -11 13 -11 6 0 4 -5 -6 -11 -27 -16 -10 -29 39
-29 44 0 45 1 42 28 -3 24 -7 27 -45 30 -26 2 -43 -1 -43 -7z m50 -31 c0 -5
-5 -10 -11 -10 -5 0 -7 5 -4 10 3 6 8 10 11 10 2 0 4 -4 4 -10z"/>
</g>
</svg>
